<svg width="24" height="24" viewBox="0 0 24 24" fill="none" xmlns="http://www.w3.org/2000/svg">
  <circle cx="12" cy="12" r="10" fill="#25d366"/>
  <path d="M17.5 6.5c-1.4-1.4-3.3-2.2-5.3-2.2-4.1 0-7.5 3.4-7.5 7.5 0 1.3.3 2.6 1 3.7L4 20l4.7-1.2c1.1.6 2.3.9 3.5.9h.003c4.1 0 7.5-3.4 7.5-7.5-.1-2-0.8-3.9-2.2-5.3l-.503-.4zm-5.3 11.5c-1.1 0-2.2-.3-3.1-.8l-.2-.1-2.3.6.6-2.2-.1-.2c-.6-1-0.9-2.1-0.9-3.3 0-3.4 2.8-6.2 6.2-6.2 1.7 0 3.2.7 4.4 1.8 1.2 1.2 1.8 2.7 1.8 4.4-.1 3.4-2.8 6.2-6.4 6.2z" fill="white"/>
  <path d="M14.8 12.8c-.2-.1-.6-.3-1.2-.5-.6-.2-.7-.1-.8.1-.1.2-.4.5-.5.6-.1.1-.2.1-.4 0-.2-.1-.8-.3-1.5-.9-.6-.5-.9-1.1-1-1.3-.1-.2 0-.3.1-.4.1-.1.2-.2.3-.3.1-.1.1-.2.2-.3.1-.1 0-.2-.1-.3-.1-.1-.5-1.2-.7-1.6-.2-.4-.4-.4-.5-.4h-.4c-.1 0-.4.1-.6.3-.2.2-.8.8-.8 1.9s.8 2.2.9 2.4c.1.1 1.6 2.4 3.8 3.4.5.2 1 .4 1.3.5.5.2 1 .2 1.4.1.4-.1 1.2-.5 1.4-.9.2-.4.2-.8.1-.9-.1-.1-.2-.1-.4-.2z" fill="#25d366"/>
</svg>